<?xml version="1.0" encoding="UTF-8"?>
<!DOCTYPE svg PUBLIC "-//W3C//DTD SVG 1.1//EN" "http://www.w3.org/Graphics/SVG/1.1/DTD/svg11.dtd">
<!-- Creator: CorelDRAW 2018 (64-Bit) -->
<svg xmlns="http://www.w3.org/2000/svg" xml:space="preserve" width="211.667mm" height="91.44mm" version="1.1" style="shape-rendering:geometricPrecision; text-rendering:geometricPrecision; image-rendering:optimizeQuality; fill-rule:evenodd; clip-rule:evenodd"
viewBox="0 0 21166.66 9144"
 xmlns:xlink="http://www.w3.org/1999/xlink">
 <defs>
  <style type="text/css">
   <![CDATA[
    .str1 {stroke:orangered;stroke-width:254;stroke-linecap:round;stroke-linejoin:round;stroke-miterlimit:22.9256}
    .str0 {stroke:gold;stroke-width:508;stroke-linecap:round;stroke-linejoin:round;stroke-miterlimit:22.9256}
    .str2 {stroke:gold;stroke-width:508;stroke-linecap:round;stroke-linejoin:round;stroke-miterlimit:22.9256}
    .fil0 {fill:none}
    .fil1 {fill:gold;fill-rule:nonzero}
    .fil2 {fill:white;fill-rule:nonzero}
   ]]>
  </style>
 </defs>
 <g id="Layer_x0020_1">
  <metadata id="CorelCorpID_0Corel-Layer"/>
  <g>
   <path class="fil0 str0" d="M2362.34 2112.53c879.09,0 1591.73,712.64 1591.73,1591.73 0,879.09 -712.64,1591.73 -1591.73,1591.73"/>
  </g>
  <g>
   <path class="fil0 str1" d="M3404.99 3646.3c-31.98,630.45 -568.98,1115.61 -1199.43,1083.63"/>
  </g>
  <g>
   <path class="fil1" d="M1391.2 2112.54c0,-106.61 113.32,-193.04 253.09,-193.04 139.77,0 253.09,86.43 253.09,193.04l-506.18 0zm0 4745.46l0 -4745.46 506.18 0 0 4745.46 -506.18 0zm506.18 0c0,106.61 -113.32,193.04 -253.09,193.04 -139.77,0 -253.09,-86.43 -253.09,-193.04l506.18 0z"/>
  </g>
  <g>
   <line class="fil0 str2" x1="3612.39" y1="4900.31" x2="5136.51" y2= "6424.44" />
  </g>
  <path class="fil2" d="M5164.1 2663.39c-84.05,0 -156.43,-30.35 -217.13,-91.05 -60.7,-60.7 -91.05,-133.08 -91.05,-217.12 0,-84.05 30.35,-156.43 91.05,-217.13 60.7,-60.7 133.08,-91.05 217.13,-91.05 84.04,0 156.42,30.35 217.12,91.05 60.7,60.7 91.05,133.08 91.05,217.13 0,84.04 -30.35,156.42 -91.05,217.12 -60.7,60.7 -133.08,91.05 -217.12,91.05zm-252.15 4188.42l0 -2801.62c0,-65.37 25.68,-122.57 77.05,-171.6 51.36,-49.02 112.06,-73.54 182.1,-73.54 70.04,0 130.74,24.52 182.11,73.54 51.36,49.03 77.04,106.23 77.04,171.6l0 2801.62c0,65.37 -25.68,122.57 -77.04,171.6 -51.37,49.03 -112.07,73.54 -182.11,73.54 -70.04,0 -130.74,-24.51 -182.1,-73.54 -51.37,-49.03 -77.05,-106.23 -77.05,-171.6zm1274.74 -245.14c0,-56.03 18.67,-103.9 56.03,-143.59 37.35,-39.68 86.38,-59.53 147.08,-59.53 70.04,0 163.43,35.02 280.16,105.06 200.79,116.74 417.91,175.1 651.38,175.1 438.92,0 658.38,-158.76 658.38,-476.27 0,-116.74 -35.02,-211.29 -105.06,-283.67 -70.04,-72.37 -184.44,-143.58 -343.2,-213.62 -37.35,-14.01 -156.42,-58.37 -357.2,-133.08 -172.77,-60.7 -308.18,-114.4 -406.24,-161.09 -345.53,-163.43 -518.3,-417.91 -518.3,-763.44 0,-266.15 101.56,-475.11 304.68,-626.86 203.11,-151.76 486.78,-227.63 850.99,-227.63 280.16,0 522.97,35.02 728.42,105.06 196.11,65.37 294.17,158.76 294.17,280.16 0,56.03 -18.68,102.73 -56.03,140.08 -37.36,37.36 -84.05,56.03 -140.08,56.03 -51.37,0 -161.1,-25.68 -329.19,-77.04 -168.1,-51.36 -326.86,-77.05 -476.28,-77.05 -429.58,0 -644.37,142.42 -644.37,427.25 0,102.73 30.35,184.44 91.05,245.14 60.7,60.7 158.76,121.41 294.17,182.11 70.04,37.35 196.11,86.38 378.22,147.08 172.77,60.7 301.17,109.73 385.22,147.09 387.56,182.1 581.34,445.92 581.34,791.45 0,284.83 -105.06,511.3 -315.19,679.39 -210.12,168.1 -494.95,252.15 -854.49,252.15 -345.53,0 -642.03,-58.37 -889.51,-175.1 -177.44,-93.39 -266.15,-198.45 -266.15,-315.18zm3326.92 -3943.28c-84.05,0 -156.43,-30.35 -217.13,-91.05 -60.7,-60.7 -91.05,-133.08 -91.05,-217.12 0,-84.05 30.35,-156.43 91.05,-217.13 60.7,-60.7 133.08,-91.05 217.13,-91.05 84.04,0 156.42,30.35 217.12,91.05 60.7,60.7 91.05,133.08 91.05,217.13 0,84.04 -30.35,156.42 -91.05,217.12 -60.7,60.7 -133.08,91.05 -217.12,91.05zm-252.15 4188.42l0 -2801.62c0,-65.37 25.68,-122.57 77.05,-171.6 51.36,-49.02 112.06,-73.54 182.1,-73.54 70.04,0 130.74,24.52 182.11,73.54 51.36,49.03 77.04,106.23 77.04,171.6l0 2801.62c0,65.37 -25.68,122.57 -77.04,171.6 -51.37,49.03 -112.07,73.54 -182.11,73.54 -70.04,0 -130.74,-24.51 -182.1,-73.54 -51.37,-49.03 -77.05,-106.23 -77.05,-171.6zm1526.88 0l0 -2801.62c0,-65.37 25.68,-122.57 77.05,-171.6 51.36,-49.02 112.06,-73.54 182.1,-73.54 70.04,0 130.74,24.52 182.11,73.54 51.36,49.03 77.04,106.23 77.04,171.6l0 266.16c158.76,-340.87 455.26,-511.3 889.51,-511.3 233.47,0 427.25,49.03 581.34,147.09 135.41,93.38 203.12,189.11 203.12,287.16 0,70.04 -22.18,127.24 -66.54,171.6 -44.36,44.36 -99.23,66.54 -164.6,66.54 -37.35,0 -124.9,-33.85 -262.65,-101.56 -137.75,-67.7 -262.65,-101.56 -374.72,-101.56 -238.13,0 -427.24,93.39 -567.32,280.16 -158.76,214.79 -238.14,522.97 -238.14,924.54l0 1372.79c0,65.37 -25.68,122.57 -77.04,171.6 -51.37,49.03 -112.07,73.54 -182.11,73.54 -70.04,0 -130.74,-24.51 -182.1,-73.54 -51.37,-49.03 -77.05,-106.23 -77.05,-171.6zm2325.34 -1407.81c0,-410.91 119.07,-758.77 357.21,-1043.6 326.85,-396.9 777.45,-595.35 1351.78,-595.35 294.17,0 553.32,56.03 777.45,168.1 158.75,74.71 238.13,165.76 238.13,273.16 0,56.03 -19.84,103.89 -59.53,143.58 -39.69,39.69 -89.89,59.53 -150.59,59.53 -56.03,0 -137.74,-30.35 -245.14,-91.05 -182.1,-79.38 -368.88,-119.07 -560.32,-119.07 -378.22,0 -681.73,135.41 -910.53,406.24 -186.77,214.79 -280.16,480.94 -280.16,798.46 0,364.21 107.4,660.71 322.19,889.51 219.46,224.13 511.29,336.19 875.5,336.19 214.79,0 406.24,-32.68 574.33,-98.05 158.76,-65.37 240.47,-98.06 245.14,-98.06 56.04,0 103.9,21.01 143.59,63.04 39.69,42.02 59.53,91.05 59.53,147.08 0,107.4 -98.06,200.78 -294.17,280.16 -210.12,88.72 -457.6,133.08 -742.43,133.08 -541.64,0 -964.22,-158.76 -1267.73,-476.27 -289.5,-303.51 -434.25,-695.74 -434.25,-1176.68zm3488.01 1407.81l0 -4405.54c0,-70.04 25.68,-129.58 77.05,-178.61 51.36,-49.02 112.06,-73.54 182.1,-73.54 70.04,0 130.74,24.52 182.11,73.54 51.36,49.03 77.04,108.57 77.04,178.61l0 1954.13c205.45,-396.9 574.33,-595.35 1106.64,-595.35 392.22,0 698.07,95.72 917.53,287.17 252.14,219.46 378.22,571.99 378.22,1057.61l0 1701.98c0,65.37 -25.69,122.57 -77.05,171.6 -51.36,49.03 -112.06,73.54 -182.1,73.54 -70.04,0 -129.58,-24.51 -178.61,-73.54 -49.03,-49.03 -73.54,-106.23 -73.54,-171.6l0 -1589.92c0,-378.22 -86.38,-646.7 -259.15,-805.46 -144.75,-135.41 -352.54,-203.12 -623.36,-203.12 -373.55,0 -649.04,161.09 -826.48,483.28 -121.4,233.47 -182.1,511.29 -182.1,833.48l0 1281.74c0,65.37 -25.68,122.57 -77.04,171.6 -51.37,49.03 -112.07,73.54 -182.11,73.54 -70.04,0 -130.74,-24.51 -182.1,-73.54 -51.37,-49.03 -77.05,-106.23 -77.05,-171.6z"/>
 </g>
</svg>
